<!-- Generated by IcoMoon.io -->
<svg version="1.1" xmlns="http://www.w3.org/2000/svg" width="67" height="32" viewBox="0 0 67 32">
<title>groupTL</title>
<path fill="#afb1b8" d="M33.724 15.223c-0.271-0.35-0.435-0.795-0.435-1.278 0-0.048 0.002-0.095 0.005-0.142l-0 0.006v-2.051c0-0.628 0.142-1.106 0.428-1.433 0.284-0.327 0.774-0.489 1.468-0.488 0.652 0 1.116 0.139 1.389 0.417 0.299 0.355 0.444 0.789 0.411 1.226v0.482h-1.166v-0.489c0.004-0.159-0.007-0.319-0.034-0.477-0.020-0.116-0.081-0.214-0.166-0.283l-0.001-0.001c-0.105-0.070-0.234-0.112-0.373-0.112-0.018 0-0.035 0.001-0.052 0.002l0.002-0c-0.015-0.001-0.033-0.002-0.050-0.002-0.147 0-0.283 0.044-0.397 0.12l0.003-0.002c-0.096 0.077-0.166 0.185-0.193 0.309l-0.001 0.004c-0.030 0.14-0.047 0.302-0.047 0.467 0 0.014 0 0.028 0 0.042l-0-0.002v2.488c-0.019 0.24 0.033 0.48 0.149 0.698 0.061 0.075 0.139 0.133 0.23 0.168l0.004 0.001c0.068 0.027 0.148 0.043 0.231 0.043 0.025 0 0.050-0.001 0.074-0.004l-0.003 0c0.015 0.001 0.032 0.002 0.049 0.002 0.136 0 0.262-0.043 0.365-0.116l-0.002 0.001c0.090-0.075 0.153-0.18 0.174-0.299l0-0.003c0.027-0.165 0.040-0.332 0.036-0.498v-0.505h1.167v0.461c0.003 0.036 0.004 0.079 0.004 0.122 0 0.443-0.153 0.85-0.41 1.171l0.003-0.004c-0.268 0.304-0.725 0.457-1.397 0.457s-1.179-0.163-1.466-0.501zM38.583 15.245c-0.295-0.32-0.442-0.784-0.442-1.399v-2.157c0-0.609 0.147-1.070 0.442-1.383s0.787-0.469 1.478-0.467c0.686 0 1.176 0.156 1.471 0.467 0.294 0.313 0.444 0.774 0.444 1.383v2.156c0 0.609-0.149 1.077-0.449 1.398s-0.787 0.481-1.466 0.481-1.181-0.163-1.479-0.479zM40.604 14.727c0.106-0.199 0.154-0.419 0.14-0.638v-2.641c0.001-0.021 0.002-0.046 0.002-0.071 0-0.203-0.052-0.394-0.142-0.561l0.003 0.006c-0.062-0.076-0.142-0.135-0.234-0.17l-0.004-0.001c-0.068-0.027-0.146-0.042-0.229-0.042-0.028 0-0.056 0.002-0.083 0.005l0.003-0c-0.024-0.003-0.051-0.005-0.079-0.005-0.083 0-0.161 0.015-0.234 0.043l0.004-0.002c-0.096 0.036-0.177 0.096-0.239 0.171l-0.001 0.001c-0.107 0.195-0.154 0.41-0.14 0.626v2.652c-0.014 0.22 0.033 0.439 0.14 0.639 0.068 0.067 0.152 0.121 0.246 0.158 0.089 0.036 0.192 0.056 0.3 0.056s0.211-0.021 0.305-0.058l-0.006 0.002c0.095-0.037 0.178-0.091 0.246-0.158v-0.013zM43.381 9.902h1.256l0.944 3.979 0.967-3.979h1.222l0.124 5.743h-0.904l-0.097-3.991-0.932 3.991h-0.725l-0.966-4.006-0.090 4.006h-0.913l0.114-5.743zM49.301 9.902h1.957c1.127 0 1.691 0.543 1.691 1.631 0 1.041-0.594 1.562-1.781 1.56h-0.666v2.552h-1.208l0.007-5.744zM50.973 12.356c0.119 0.014 0.24 0.004 0.356-0.028 0.114-0.031 0.22-0.083 0.309-0.154 0.139-0.194 0.2-0.422 0.174-0.649 0.001-0.019 0.001-0.041 0.001-0.063 0-0.163-0.022-0.321-0.062-0.471l0.003 0.013c-0.019-0.061-0.050-0.114-0.089-0.158l0 0c-0.042-0.047-0.093-0.086-0.149-0.114l-0.003-0.001c-0.141-0.059-0.304-0.094-0.476-0.094-0.022 0-0.044 0.001-0.066 0.002l0.003-0h-0.469v1.717h0.469zM54.692 9.902h1.297l1.331 5.743h-1.126l-0.263-1.324h-1.157l-0.27 1.324h-1.143l1.331-5.743zM55.8 13.655l-0.452-2.411-0.452 2.411h0.903zM58.394 9.902h0.846l1.618 3.276v-3.276h1.003v5.743h-0.804l-1.628-3.42v3.42h-1.036l0.002-5.743zM64.209 13.454l-1.345-3.545h1.133l0.821 2.278 0.77-2.278h1.109l-1.329 3.546v2.19h-1.159v-2.19zM35.59 18.156v0.3h-0.986v2.334h-0.413v-2.334h-0.991v-0.3h2.389zM38.679 20.79h-0.319c-0.003 0-0.006 0-0.009 0-0.030 0-0.058-0.009-0.081-0.025l0 0c-0.023-0.015-0.041-0.035-0.052-0.060l-0-0.001-0.285-0.626h-1.367l-0.284 0.626c-0.009 0.028-0.024 0.052-0.044 0.071l-0 0c-0.023 0.016-0.052 0.025-0.082 0.025-0.003 0-0.005-0-0.008-0h-0.318l1.208-2.634h0.42l1.223 2.624zM36.679 19.812h1.14l-0.484-1.072c-0.031-0.067-0.061-0.15-0.086-0.235l-0.003-0.014c-0.017 0.050-0.031 0.098-0.045 0.14l-0.044 0.11-0.478 1.070zM40.762 20.531c0.076 0.004 0.151 0.004 0.228 0 0.065-0.006 0.129-0.016 0.193-0.031 0.059-0.012 0.117-0.028 0.174-0.048 0.053-0.018 0.107-0.042 0.161-0.065v-0.592h-0.483c-0.001 0-0.003 0-0.004 0-0.023 0-0.044-0.008-0.061-0.022l0 0c-0.008-0.006-0.014-0.013-0.018-0.021l-0-0c-0.004-0.007-0.006-0.015-0.006-0.024 0-0.001 0-0.002 0-0.003v0-0.202h0.937v1.010c-0.147 0.091-0.316 0.165-0.496 0.211l-0.013 0.003c-0.1 0.026-0.2 0.043-0.302 0.055-0.117 0.011-0.235 0.016-0.353 0.016-0.005 0-0.010 0-0.015 0-0.212 0-0.416-0.036-0.606-0.102l0.013 0.004c-0.186-0.065-0.347-0.158-0.486-0.277l0.002 0.002c-0.129-0.114-0.234-0.253-0.308-0.409l-0.003-0.008c-0.070-0.156-0.111-0.338-0.111-0.529 0-0.006 0-0.012 0-0.019v0.001c-0-0.005-0-0.010-0-0.016 0-0.193 0.040-0.377 0.112-0.543l-0.003 0.009c0.069-0.156 0.176-0.299 0.311-0.417 0.138-0.119 0.302-0.211 0.484-0.273 0.206-0.068 0.427-0.101 0.647-0.098 0.112 0 0.225 0.007 0.336 0.023 0.098 0.014 0.195 0.036 0.287 0.067 0.085 0.027 0.166 0.063 0.242 0.105 0.074 0.041 0.144 0.087 0.211 0.137l-0.116 0.163c-0.010 0.015-0.023 0.027-0.039 0.035l-0.001 0c-0.016 0.009-0.035 0.014-0.055 0.014h-0c-0.028-0.001-0.053-0.008-0.075-0.021l0.001 0c-0.049-0.023-0.088-0.044-0.126-0.066l0.007 0.004c-0.045-0.025-0.099-0.049-0.154-0.069l-0.008-0.002c-0.062-0.022-0.136-0.042-0.213-0.057l-0.009-0.001c-0.087-0.015-0.188-0.023-0.29-0.023-0.006 0-0.011 0-0.017 0h0.001c-0.004-0-0.010-0-0.015-0-0.162 0-0.317 0.027-0.462 0.076l0.010-0.003c-0.134 0.046-0.256 0.117-0.356 0.208-0.095 0.090-0.171 0.199-0.222 0.321l-0.002 0.006c-0.051 0.13-0.081 0.281-0.081 0.439s0.030 0.309 0.084 0.448l-0.003-0.008c0.053 0.124 0.135 0.237 0.242 0.332 0.099 0.090 0.219 0.161 0.352 0.208 0.154 0.046 0.316 0.063 0.479 0.052zM44.612 20.49h1.319v0.3h-1.722v-2.634h0.412l-0.009 2.334zM47.303 20.79h-0.412v-2.634h0.412v2.634zM48.84 18.169c0.025 0.012 0.046 0.028 0.063 0.047l0 0 1.766 1.985c-0.001-0.014-0.002-0.030-0.002-0.047s0.001-0.033 0.002-0.049l-0 0.002v-1.963h0.36v2.645h-0.208c-0.004 0-0.009 0-0.014 0-0.027 0-0.054-0.006-0.077-0.016l0.001 0c-0.025-0.013-0.047-0.030-0.065-0.050l-0-0-1.764-1.984v2.048h-0.346v-2.634h0.215c0.023 0 0.047 0.004 0.068 0.012zM54.070 18.156v0.289h-1.463v0.87h1.186v0.279h-1.186v0.9h1.463v0.289h-1.889v-2.628h1.889zM10.782 1.889l18.343 4.496v15.757l-18.343-4.494v-15.76zM9.605 0.545v17.868l20.693 5.075v-17.866l-20.693-5.076z"></path>
<path fill="#afb1b8" d="M20.696 31.781l-20.696-5.079v-17.865l20.696 5.077v17.867z"></path>
<path fill="#afb1b8" d="M9.948 1.686l18.103 4.44-7.698 6.649-18.107-4.442 7.702-6.647zM9.605 0.545l-9.605 8.292 20.696 5.077 9.603-8.294-20.693-5.075zM21.86 30.776l8.439-7.288-8.439-2.069v9.358z"></path>
</svg>
