<!-- Generated by IcoMoon.io -->
<svg version="1.1" xmlns="http://www.w3.org/2000/svg" width="28" height="32" viewBox="0 0 28 32">
<title>groupYC</title>
<path fill="#afb1b8" d="M4.085 0l4.771 4.517-8.857-0.005v21.915h23.149v-8.379l4.766 4.512v-22.559h-23.83zM22.939 17.517l-13.528-12.807h13.528v12.807zM18.739 23.22h-15.076v-14.738h1.066v13.74h14.011v0.997zM7.224 29.345l-0.557 1.147-0.557-1.147h-0.467l0.813 1.529v0.891h0.422v-0.891l0.811-1.529h-0.465zM7.924 31.765l0.196-0.564h0.938l0.197 0.564h0.439l-0.916-2.42h-0.378l-0.914 2.42h0.437zM8.588 29.859l0.351 1.004h-0.701l0.351-1.004zM10.806 30.804c-0.057 0.085-0.091 0.19-0.091 0.303 0 0.001 0 0.003 0 0.004v-0c0 0.204 0.072 0.37 0.214 0.497s0.336 0.19 0.575 0.19c0.239 0 0.445-0.065 0.618-0.195l0.136 0.161h0.468l-0.355-0.421c0.14-0.191 0.209-0.435 0.209-0.733h-0.351c0 0.163-0.034 0.311-0.101 0.444l-0.468-0.552 0.165-0.12c0.1-0.068 0.184-0.152 0.249-0.249l0.002-0.003c0.048-0.079 0.076-0.174 0.076-0.275 0-0.001 0-0.003-0-0.004v0c0-0.003 0-0.006 0-0.009 0-0.149-0.065-0.283-0.169-0.374l-0.001-0c-0.108-0.097-0.251-0.157-0.408-0.157-0.008 0-0.017 0-0.025 0l0.001-0c-0.195 0-0.35 0.056-0.465 0.166s-0.173 0.259-0.173 0.449c0 0.078 0.018 0.157 0.054 0.241 0.038 0.083 0.104 0.184 0.197 0.302-0.179 0.129-0.3 0.24-0.36 0.334zM11.898 31.34c-0.104 0.084-0.237 0.135-0.382 0.136h-0c-0.006 0-0.013 0-0.020 0-0.104 0-0.199-0.040-0.27-0.106l0 0c-0.067-0.066-0.108-0.157-0.108-0.259 0-0.005 0-0.009 0-0.014l-0 0.001c0-0.129 0.067-0.245 0.2-0.346l0.052-0.037 0.528 0.624zM11.464 30.267c-0.114-0.141-0.172-0.257-0.172-0.351 0-0.081 0.024-0.148 0.070-0.201 0.044-0.049 0.107-0.081 0.178-0.081 0.004 0 0.007 0 0.010 0l-0.001-0c0.003-0 0.006-0 0.009-0 0.067 0 0.127 0.026 0.173 0.068l-0-0c0.048 0.045 0.072 0.099 0.072 0.161 0 0.003 0 0.006 0 0.009 0 0.090-0.040 0.171-0.103 0.226l-0 0-0.052 0.041-0.184 0.127zM15.404 31.582c0.166-0.145 0.261-0.347 0.286-0.605h-0.419c-0.022 0.173-0.075 0.296-0.158 0.37s-0.208 0.112-0.372 0.112c-0.18 0-0.318-0.069-0.412-0.206s-0.14-0.337-0.14-0.599v-0.214c0.003-0.259 0.052-0.453 0.15-0.587 0.099-0.134 0.24-0.201 0.422-0.201 0.157 0 0.276 0.039 0.357 0.116s0.133 0.202 0.153 0.376h0.419c-0.027-0.265-0.121-0.47-0.285-0.615s-0.378-0.218-0.645-0.218c-0.198 0-0.373 0.048-0.525 0.142-0.152 0.097-0.271 0.234-0.345 0.396l-0.002 0.006c-0.077 0.169-0.122 0.367-0.122 0.576 0 0.010 0 0.020 0 0.030l-0-0.001v0.226c0.003 0.223 0.045 0.418 0.125 0.587s0.193 0.298 0.339 0.39c0.148 0.091 0.318 0.136 0.511 0.136 0.276 0 0.497-0.072 0.663-0.216zM17.875 31.243c0.082-0.18 0.123-0.388 0.123-0.625v-0.134c0-0.007 0-0.016 0-0.024 0-0.216-0.047-0.421-0.131-0.605l0.004 0.009c-0.077-0.171-0.199-0.31-0.35-0.406l-0.004-0.002c-0.152-0.095-0.326-0.143-0.524-0.143s-0.372 0.048-0.525 0.144c-0.152 0.095-0.27 0.233-0.354 0.414-0.079 0.175-0.125 0.38-0.125 0.595 0 0.011 0 0.021 0 0.032l-0-0.002v0.136c0.001 0.232 0.043 0.436 0.126 0.613 0.084 0.178 0.203 0.315 0.356 0.411 0.154 0.095 0.329 0.143 0.525 0.143 0.199 0 0.374-0.048 0.526-0.143 0.152-0.097 0.27-0.234 0.352-0.413zM17.425 29.874c0.102 0.143 0.152 0.349 0.152 0.618v0.126c0 0.272-0.050 0.48-0.151 0.622-0.099 0.142-0.242 0.213-0.429 0.213-0.005 0-0.011 0-0.017 0-0.171 0-0.323-0.086-0.413-0.216l-0.001-0.002c-0.104-0.145-0.155-0.351-0.155-0.617v-0.14c0.002-0.26 0.054-0.462 0.156-0.603 0.091-0.13 0.24-0.215 0.409-0.215 0.006 0 0.012 0 0.018 0l-0.001-0c0.187 0 0.33 0.072 0.431 0.214z"></path>
</svg>
